<?xml version="1.0" encoding="UTF-8"?>
<svg xmlns="http://www.w3.org/2000/svg" xmlns:xlink="http://www.w3.org/1999/xlink" width="854" height="480" viewBox="0 0 854 480">
<defs>
<g>
<g id="glyph-0-0">
<path d="M 2.539062 -4.882812 L 2.539062 -4.699219 C 2.28125 -4.683594 2.113281 -4.660156 2.035156 -4.632812 C 1.960938 -4.601562 1.921875 -4.53125 1.921875 -4.410156 C 1.921875 -4.375 1.925781 -4.339844 1.929688 -4.308594 C 1.9375 -4.277344 1.949219 -4.242188 1.964844 -4.203125 L 3.058594 -1.539062 L 3.101562 -1.539062 L 4.046875 -3.976562 C 4.066406 -4.03125 4.085938 -4.085938 4.101562 -4.144531 C 4.128906 -4.234375 4.144531 -4.308594 4.144531 -4.367188 C 4.144531 -4.503906 4.101562 -4.585938 4.023438 -4.621094 C 3.941406 -4.65625 3.777344 -4.679688 3.527344 -4.699219 L 3.527344 -4.882812 L 5.0625 -4.882812 L 5.0625 -4.703125 C 4.886719 -4.683594 4.753906 -4.632812 4.667969 -4.550781 C 4.578125 -4.46875 4.496094 -4.320312 4.410156 -4.113281 L 2.765625 0.132812 L 2.574219 0.132812 L 0.714844 -4.191406 C 0.640625 -4.367188 0.5625 -4.492188 0.484375 -4.570312 C 0.40625 -4.644531 0.285156 -4.691406 0.117188 -4.703125 L 0.117188 -4.882812 Z "/>
</g>
<g id="glyph-0-1">
<path d="M 0.433594 -4.429688 C 0.433594 -4.585938 0.488281 -4.71875 0.597656 -4.828125 C 0.707031 -4.9375 0.839844 -4.992188 0.996094 -4.992188 C 1.148438 -4.992188 1.277344 -4.9375 1.386719 -4.828125 C 1.496094 -4.71875 1.550781 -4.585938 1.550781 -4.429688 C 1.550781 -4.273438 1.496094 -4.140625 1.386719 -4.03125 C 1.277344 -3.921875 1.148438 -3.867188 0.996094 -3.867188 C 0.839844 -3.867188 0.707031 -3.921875 0.597656 -4.03125 C 0.488281 -4.140625 0.433594 -4.273438 0.433594 -4.429688 Z M 0.117188 -0.171875 C 0.242188 -0.195312 0.332031 -0.226562 0.378906 -0.269531 C 0.449219 -0.332031 0.484375 -0.445312 0.484375 -0.609375 L 0.484375 -2.734375 C 0.484375 -2.878906 0.457031 -2.976562 0.410156 -3.03125 C 0.359375 -3.085938 0.261719 -3.125 0.117188 -3.148438 L 0.117188 -3.324219 L 1.503906 -3.324219 L 1.503906 -0.582031 C 1.503906 -0.425781 1.527344 -0.324219 1.574219 -0.277344 C 1.621094 -0.234375 1.707031 -0.199219 1.835938 -0.171875 L 1.835938 0 L 0.117188 0 Z "/>
</g>
<g id="glyph-0-2">
<path d="M 1.820312 -0.308594 C 1.976562 -0.308594 2.113281 -0.375 2.238281 -0.515625 C 2.359375 -0.652344 2.421875 -0.75 2.421875 -0.808594 L 2.421875 -2.5625 C 2.421875 -2.621094 2.371094 -2.710938 2.265625 -2.824219 C 2.160156 -2.941406 2.019531 -2.996094 1.84375 -2.996094 C 1.589844 -2.996094 1.414062 -2.820312 1.324219 -2.464844 C 1.273438 -2.273438 1.25 -2.003906 1.25 -1.65625 C 1.25 -1.285156 1.273438 -1.007812 1.320312 -0.816406 C 1.40625 -0.476562 1.574219 -0.308594 1.820312 -0.308594 Z M 0.183594 -1.5625 C 0.183594 -2.132812 0.320312 -2.585938 0.589844 -2.914062 C 0.863281 -3.246094 1.1875 -3.410156 1.570312 -3.410156 C 1.761719 -3.410156 1.929688 -3.363281 2.078125 -3.269531 C 2.167969 -3.214844 2.285156 -3.113281 2.421875 -2.964844 L 2.421875 -4.289062 C 2.421875 -4.46875 2.386719 -4.582031 2.316406 -4.625 C 2.246094 -4.667969 2.101562 -4.695312 1.878906 -4.703125 L 1.878906 -4.882812 L 3.433594 -4.882812 L 3.433594 -0.726562 C 3.433594 -0.574219 3.464844 -0.472656 3.519531 -0.414062 C 3.574219 -0.355469 3.6875 -0.320312 3.851562 -0.308594 L 3.851562 -0.140625 C 3.445312 -0.101562 3.1875 -0.0703125 3.066406 -0.0507812 C 2.949219 -0.03125 2.742188 0.0195312 2.449219 0.101562 L 2.449219 -0.375 C 2.3125 -0.234375 2.1875 -0.128906 2.074219 -0.0585938 C 1.894531 0.046875 1.703125 0.101562 1.496094 0.101562 C 1.144531 0.101562 0.835938 -0.046875 0.574219 -0.34375 C 0.3125 -0.644531 0.183594 -1.050781 0.183594 -1.5625 Z "/>
</g>
<g id="glyph-0-3">
<path d="M 0.164062 -1.65625 C 0.164062 -2.210938 0.308594 -2.644531 0.605469 -2.949219 C 0.898438 -3.257812 1.253906 -3.410156 1.671875 -3.410156 C 1.910156 -3.410156 2.132812 -3.347656 2.339844 -3.222656 C 2.550781 -3.097656 2.710938 -2.925781 2.824219 -2.703125 C 2.910156 -2.539062 2.96875 -2.320312 3 -2.054688 C 3.015625 -1.929688 3.027344 -1.835938 3.027344 -1.769531 L 1.183594 -1.769531 C 1.199219 -1.480469 1.25 -1.230469 1.324219 -1.019531 C 1.464844 -0.621094 1.714844 -0.421875 2.070312 -0.421875 C 2.238281 -0.421875 2.398438 -0.476562 2.550781 -0.582031 C 2.640625 -0.644531 2.753906 -0.753906 2.890625 -0.902344 L 3.058594 -0.800781 C 2.835938 -0.433594 2.574219 -0.179688 2.28125 -0.0351562 C 2.089844 0.0546875 1.871094 0.101562 1.625 0.101562 C 1.269531 0.101562 0.9375 -0.0390625 0.628906 -0.316406 C 0.316406 -0.597656 0.164062 -1.042969 0.164062 -1.65625 Z M 2.136719 -2.039062 C 2.132812 -2.464844 2.097656 -2.761719 2.039062 -2.929688 C 1.976562 -3.101562 1.855469 -3.183594 1.671875 -3.183594 C 1.484375 -3.183594 1.355469 -3.085938 1.285156 -2.890625 C 1.214844 -2.695312 1.175781 -2.414062 1.167969 -2.039062 Z "/>
</g>
<g id="glyph-0-4">
<path d="M 0.160156 -1.652344 C 0.160156 -2.15625 0.3125 -2.578125 0.621094 -2.914062 C 0.929688 -3.25 1.320312 -3.417969 1.789062 -3.417969 C 2.265625 -3.417969 2.65625 -3.246094 2.960938 -2.902344 C 3.265625 -2.558594 3.417969 -2.144531 3.417969 -1.652344 C 3.417969 -1.171875 3.265625 -0.757812 2.964844 -0.410156 C 2.664062 -0.0625 2.273438 0.109375 1.789062 0.109375 C 1.316406 0.109375 0.929688 -0.0585938 0.621094 -0.398438 C 0.3125 -0.734375 0.160156 -1.152344 0.160156 -1.652344 Z M 1.21875 -1.652344 C 1.21875 -1.148438 1.246094 -0.792969 1.296875 -0.59375 C 1.378906 -0.28125 1.542969 -0.125 1.789062 -0.125 C 2.019531 -0.125 2.171875 -0.242188 2.246094 -0.484375 C 2.320312 -0.722656 2.355469 -1.113281 2.355469 -1.652344 C 2.355469 -2.191406 2.316406 -2.582031 2.242188 -2.824219 C 2.164062 -3.066406 2.015625 -3.183594 1.792969 -3.183594 C 1.546875 -3.183594 1.382812 -3.027344 1.300781 -2.714844 C 1.246094 -2.507812 1.21875 -2.152344 1.21875 -1.652344 Z "/>
</g>
<g id="glyph-0-5">
<rect x="0" y="0" width="0" height="0" mask="url(#mask-0)"/>
</g>
<g id="glyph-0-6">
<path d="M 2.792969 -4.972656 C 3.09375 -4.972656 3.398438 -4.917969 3.707031 -4.804688 C 4.015625 -4.691406 4.1875 -4.636719 4.222656 -4.636719 C 4.3125 -4.636719 4.386719 -4.671875 4.441406 -4.742188 C 4.496094 -4.8125 4.53125 -4.886719 4.546875 -4.964844 L 4.746094 -4.964844 L 4.746094 -3.277344 L 4.5625 -3.277344 C 4.390625 -3.644531 4.210938 -3.933594 4.03125 -4.144531 C 3.691406 -4.535156 3.308594 -4.730469 2.882812 -4.730469 C 2.398438 -4.730469 2.054688 -4.519531 1.851562 -4.101562 C 1.648438 -3.683594 1.542969 -3.125 1.542969 -2.421875 C 1.542969 -1.90625 1.605469 -1.480469 1.722656 -1.144531 C 1.949219 -0.519531 2.363281 -0.207031 2.96875 -0.207031 C 3.339844 -0.207031 3.6875 -0.3125 4.007812 -0.519531 C 4.191406 -0.640625 4.40625 -0.828125 4.65625 -1.09375 L 4.871094 -0.917969 C 4.589844 -0.601562 4.339844 -0.375 4.125 -0.234375 C 3.746094 0.0195312 3.320312 0.144531 2.855469 0.144531 C 2.144531 0.144531 1.546875 -0.0664062 1.066406 -0.488281 C 0.53125 -0.957031 0.265625 -1.589844 0.265625 -2.378906 C 0.265625 -3.164062 0.519531 -3.800781 1.03125 -4.289062 C 1.511719 -4.746094 2.097656 -4.972656 2.792969 -4.972656 Z "/>
</g>
<g id="glyph-0-7">
<path d="M 0.128906 -0.171875 C 0.269531 -0.1875 0.367188 -0.222656 0.417969 -0.273438 C 0.472656 -0.320312 0.503906 -0.417969 0.507812 -0.558594 L 0.515625 -0.769531 L 0.515625 -2.734375 C 0.515625 -2.882812 0.488281 -2.984375 0.4375 -3.039062 C 0.386719 -3.09375 0.285156 -3.128906 0.128906 -3.148438 L 0.128906 -3.324219 L 1.503906 -3.324219 L 1.503906 -2.757812 C 1.65625 -2.957031 1.808594 -3.117188 1.957031 -3.234375 C 2.109375 -3.351562 2.28125 -3.410156 2.480469 -3.410156 C 2.628906 -3.410156 2.761719 -3.363281 2.878906 -3.265625 C 3 -3.171875 3.058594 -3.03125 3.058594 -2.847656 C 3.058594 -2.707031 3.015625 -2.59375 2.933594 -2.5 C 2.847656 -2.410156 2.742188 -2.363281 2.605469 -2.363281 C 2.453125 -2.363281 2.320312 -2.433594 2.210938 -2.578125 C 2.097656 -2.722656 2.019531 -2.792969 1.976562 -2.792969 C 1.878906 -2.792969 1.78125 -2.734375 1.683594 -2.613281 C 1.585938 -2.496094 1.539062 -2.328125 1.539062 -2.105469 L 1.539062 -0.742188 C 1.539062 -0.5 1.574219 -0.351562 1.640625 -0.289062 C 1.710938 -0.230469 1.847656 -0.191406 2.054688 -0.171875 L 2.054688 0 L 0.128906 0 Z "/>
</g>
<g id="glyph-0-8">
<path d="M 1.582031 -0.414062 C 1.699219 -0.414062 1.808594 -0.449219 1.910156 -0.519531 C 1.96875 -0.5625 2.035156 -0.625 2.113281 -0.714844 L 2.113281 -1.769531 C 1.921875 -1.722656 1.75 -1.648438 1.605469 -1.546875 C 1.359375 -1.375 1.234375 -1.15625 1.234375 -0.890625 C 1.234375 -0.734375 1.269531 -0.617188 1.34375 -0.535156 C 1.414062 -0.453125 1.492188 -0.414062 1.582031 -0.414062 Z M 0.183594 -0.671875 C 0.183594 -0.996094 0.339844 -1.253906 0.652344 -1.445312 C 0.964844 -1.636719 1.457031 -1.828125 2.125 -2.019531 L 2.125 -2.546875 C 2.125 -2.761719 2.078125 -2.917969 1.988281 -3.019531 C 1.898438 -3.121094 1.734375 -3.175781 1.507812 -3.175781 C 1.378906 -3.175781 1.269531 -3.148438 1.1875 -3.101562 C 1.105469 -3.054688 1.0625 -2.992188 1.0625 -2.921875 C 1.0625 -2.890625 1.066406 -2.867188 1.074219 -2.847656 C 1.085938 -2.832031 1.097656 -2.8125 1.117188 -2.789062 L 1.160156 -2.742188 C 1.191406 -2.699219 1.21875 -2.65625 1.238281 -2.609375 C 1.257812 -2.558594 1.269531 -2.507812 1.269531 -2.453125 C 1.269531 -2.316406 1.222656 -2.214844 1.132812 -2.140625 C 1.042969 -2.066406 0.9375 -2.027344 0.816406 -2.027344 C 0.679688 -2.027344 0.5625 -2.070312 0.464844 -2.152344 C 0.367188 -2.234375 0.316406 -2.351562 0.316406 -2.507812 C 0.316406 -2.785156 0.449219 -3.003906 0.707031 -3.167969 C 0.96875 -3.328125 1.289062 -3.410156 1.671875 -3.410156 C 2.082031 -3.410156 2.421875 -3.332031 2.699219 -3.175781 C 2.972656 -3.015625 3.105469 -2.71875 3.105469 -2.292969 L 3.105469 -0.542969 C 3.105469 -0.492188 3.121094 -0.449219 3.148438 -0.410156 C 3.175781 -0.375 3.203125 -0.355469 3.238281 -0.355469 C 3.265625 -0.355469 3.289062 -0.363281 3.3125 -0.371094 C 3.335938 -0.382812 3.371094 -0.410156 3.417969 -0.457031 L 3.527344 -0.308594 C 3.386719 -0.144531 3.230469 -0.0273438 3.058594 0.0390625 C 2.949219 0.0820312 2.835938 0.101562 2.714844 0.101562 C 2.5 0.101562 2.34375 0.0390625 2.246094 -0.0859375 C 2.191406 -0.15625 2.148438 -0.261719 2.125 -0.398438 C 1.925781 -0.199219 1.699219 -0.0585938 1.445312 0.0234375 C 1.292969 0.0742188 1.144531 0.101562 0.996094 0.101562 C 0.796875 0.101562 0.613281 0.0390625 0.441406 -0.0859375 C 0.269531 -0.210938 0.183594 -0.40625 0.183594 -0.671875 Z "/>
</g>
<g id="glyph-0-9">
<path d="M 0.117188 -3.007812 L 0.117188 -3.210938 C 0.179688 -3.269531 0.257812 -3.335938 0.351562 -3.417969 C 0.476562 -3.53125 0.59375 -3.652344 0.707031 -3.773438 C 0.925781 -4.011719 1.121094 -4.269531 1.300781 -4.546875 L 1.484375 -4.546875 L 1.484375 -3.324219 L 2.171875 -3.324219 L 2.171875 -3.007812 L 1.484375 -3.007812 L 1.484375 -0.835938 C 1.484375 -0.734375 1.5 -0.648438 1.53125 -0.582031 C 1.578125 -0.476562 1.65625 -0.421875 1.761719 -0.421875 C 1.855469 -0.421875 1.9375 -0.457031 2 -0.523438 C 2.0625 -0.589844 2.125 -0.683594 2.191406 -0.800781 L 2.363281 -0.714844 C 2.277344 -0.519531 2.175781 -0.355469 2.058594 -0.234375 C 1.851562 -0.015625 1.601562 0.09375 1.300781 0.09375 C 1.132812 0.09375 0.984375 0.0625 0.855469 0 C 0.613281 -0.121094 0.488281 -0.34375 0.488281 -0.667969 L 0.488281 -3.007812 Z "/>
</g>
</g>
<image id="source-36" x="0" y="0" width="0" height="0"/>
<mask id="mask-0">
<use xlink:href="#source-36"/>
</mask>
</defs>
<g fill="rgb(60.392157%, 44.705882%, 67.45098%)" fill-opacity="1">
<use xlink:href="#glyph-0-0" x="30" y="25.416992"/>
<use xlink:href="#glyph-0-1" x="35" y="25.416992"/>
<use xlink:href="#glyph-0-2" x="37" y="25.416992"/>
<use xlink:href="#glyph-0-3" x="41" y="25.416992"/>
<use xlink:href="#glyph-0-4" x="44" y="25.416992"/>
<use xlink:href="#glyph-0-5" x="48" y="25.416992"/>
<use xlink:href="#glyph-0-6" x="50" y="25.416992"/>
<use xlink:href="#glyph-0-7" x="55" y="25.416992"/>
<use xlink:href="#glyph-0-3" x="58" y="25.416992"/>
<use xlink:href="#glyph-0-8" x="61" y="25.416992"/>
<use xlink:href="#glyph-0-9" x="65" y="25.416992"/>
<use xlink:href="#glyph-0-4" x="67" y="25.416992"/>
<use xlink:href="#glyph-0-7" x="71" y="25.416992"/>
</g>
</svg>
