<?xml version="1.0" encoding="UTF-8"?>
<svg xmlns="http://www.w3.org/2000/svg" xmlns:xlink="http://www.w3.org/1999/xlink" width="854" height="480" viewBox="0 0 854 480">
<defs>
<g>
<g id="glyph-0-0">
<path d="M 0.246094 -0.332031 C 1.785156 -1.996094 2.785156 -3.15625 3.25 -3.808594 C 3.964844 -4.796875 4.324219 -5.671875 4.324219 -6.433594 C 4.324219 -6.882812 4.1875 -7.304688 3.910156 -7.699219 C 3.636719 -8.089844 3.210938 -8.289062 2.628906 -8.289062 C 2.121094 -8.289062 1.695312 -8.109375 1.347656 -7.757812 C 1.160156 -7.566406 0.992188 -7.308594 0.847656 -6.980469 L 0.453125 -6.980469 C 0.773438 -7.984375 1.214844 -8.726562 1.777344 -9.207031 C 2.339844 -9.6875 2.976562 -9.929688 3.679688 -9.929688 C 4.347656 -9.929688 4.957031 -9.699219 5.5 -9.234375 C 6.046875 -8.773438 6.320312 -8.09375 6.320312 -7.195312 C 6.320312 -6.722656 6.191406 -6.242188 5.933594 -5.75 C 5.679688 -5.253906 5.246094 -4.71875 4.640625 -4.140625 L 2.441406 -2.039062 L 2.441406 -1.917969 L 4.492188 -1.917969 C 5.207031 -1.917969 5.675781 -1.976562 5.894531 -2.09375 C 6.113281 -2.210938 6.332031 -2.527344 6.550781 -3.039062 L 6.898438 -3.039062 L 6.25 0 L 0.246094 0 Z "/>
</g>
<g id="glyph-0-1">
<path d="M 0.964844 -0.34375 C 1.699219 -0.34375 2.171875 -0.445312 2.375 -0.644531 C 2.582031 -0.84375 2.6875 -1.226562 2.6875 -1.785156 L 2.6875 -7.347656 C 2.6875 -7.707031 2.644531 -7.960938 2.5625 -8.109375 C 2.480469 -8.261719 2.328125 -8.335938 2.109375 -8.335938 C 1.992188 -8.335938 1.808594 -8.296875 1.566406 -8.214844 C 1.410156 -8.167969 1.199219 -8.09375 0.929688 -7.992188 L 0.929688 -8.359375 L 4.578125 -9.929688 L 4.832031 -9.929688 L 4.832031 -1.699219 C 4.832031 -1.171875 4.914062 -0.816406 5.085938 -0.628906 C 5.253906 -0.441406 5.6875 -0.34375 6.382812 -0.34375 L 6.382812 0 L 0.964844 0 Z "/>
</g>
</g>
</defs>
<g fill="rgb(100%, 52.54902%, 18.431373%)" fill-opacity="1">
<use xlink:href="#glyph-0-0" x="30" y="30.833008"/>
<use xlink:href="#glyph-0-1" x="37" y="30.833008"/>
</g>
</svg>
